<svg id="cloudnet_logo" xmlns="http://www.w3.org/2000/svg" xmlns:xlink="http://www.w3.org/1999/xlink" viewBox="0 0 2735.73 1672.54"><defs><style>.cls-1{fill:#fff;}.cls-2{fill:url(#Unbenannter_Verlauf_9);}.cls-3{fill:url(#Unbenannter_Verlauf_8);}.cls-4{fill:#40b0e5;}.cls-5{fill:#69c6de;}.cls-6{fill:url(#Unbenannter_Verlauf_18);}.cls-7{fill:url(#Unbenannter_Verlauf_38);}.cls-8{fill:#1eb8da;}.cls-9{fill:#555454;}</style><linearGradient id="Unbenannter_Verlauf_9" x1="606.21" y1="896.98" x2="1865.22" y2="896.98" gradientUnits="userSpaceOnUse"><stop offset="0" stop-color="#a5a5a5"/><stop offset="1" stop-color="#e9e9e9"/></linearGradient><linearGradient id="Unbenannter_Verlauf_8" x1="148.97" y1="1716.36" x2="1006.56" y2="1716.36" gradientUnits="userSpaceOnUse"><stop offset="0" stop-color="#fff"/><stop offset="1" stop-color="#a2a2a2"/></linearGradient><linearGradient id="Unbenannter_Verlauf_18" x1="1637.46" y1="1176.63" x2="2451.15" y2="1176.63" gradientUnits="userSpaceOnUse"><stop offset="0.01" stop-color="#40b0e5"/><stop offset="1" stop-color="#009fe3"/></linearGradient><linearGradient id="Unbenannter_Verlauf_38" x1="2026.71" y1="1779.93" x2="2834.2" y2="1779.93" gradientUnits="userSpaceOnUse"><stop offset="0" stop-color="#69c6de"/><stop offset="1" stop-color="#1eb8da"/></linearGradient></defs><path class="cls-1" d="M1844.92,966.66c-99.22-308-414.95-490.93-720-427.72-323,66.92-544.1,391.12-483.66,728.91-11.08,1.25-26.74,3.31-45.29,6.77-60.8,11.35-252.9,47.19-355.7,191.05-104.43,146.14-87.59,357.07,2.14,491.88,66.41,99.8,167.88,150.31,196.75,164.68h0a750.23,750.23,0,0,0,164.49,49.19q4.18.73,8.36,1.42l1898,.14,6-1.89c209.79-45.22,355.85-237,344-446.64-11.33-200.9-164.91-370.28-367.84-402.06-.88-28.22-9.41-207.54-156.12-325.07C2202.37,890.2,2007.74,877.56,1844.92,966.66Z" transform="translate(-148.97 -500.44)"/><path class="cls-1" d="M687.22,2372.45" transform="translate(-148.97 -500.44)"/><path class="cls-1" d="M2473.65,2180" transform="translate(-148.97 -500.44)"/><path class="cls-2" d="M1865.22,937.44C1754.58,623,1422.26,442,1103.51,517.55c-327.76,77.73-545,404-488.31,742.19l112.28,33.77C673.15,1002.77,858.82,720.24,1138.1,655.2c266.67-62.12,546.41,90.89,639.79,357.09Z" transform="translate(-148.97 -500.44)"/><path class="cls-3" d="M615.2,1259.74c-3.08.32-7.44.81-12.65,1.47-47,6-269.46,34.37-383.71,200.9-99.89,145.59-89.65,356.63,11.41,505.42,0,0,130,191.33,366.77,205.22,5,.29,10.83.23,10.87.23h0a38.91,38.91,0,0,0,4.1-.14c-41.36-11.44-223.47-66.71-317.58-245.23-22.57-42.8-82.94-157.31-43.49-290.85,44-149,180.41-213.56,208.16-226.69,164.76-78,377.08-35.25,547.48,102.65a512.63,512.63,0,0,0-145.42-160.39C762,1281.52,662.9,1264.67,615.2,1259.74Z" transform="translate(-148.97 -500.44)"/><path class="cls-1" d="M630.88,2226.66" transform="translate(-148.97 -500.44)"/><path class="cls-4" d="M1865.22,937.44C1832,954.78,1723,1016.9,1666.33,1151.3c-41.14,97.52-34.56,185.18-28.87,225.62,17.9-49.74,64.94-157.05,176.52-231,112.27-74.45,307.66-127,445.44-23,82.44,62.18,109.66,154.27,119.07,196.32l134-10.34c-1.39-29.28-12.92-209.26-162.89-328.63C2216.74,874.44,2027.48,857.9,1865.22,937.44Z" transform="translate(-148.97 -500.44)"/><path class="cls-5" d="M1414.33,2584.88" transform="translate(-148.97 -500.44)"/><path class="cls-6" d="M1962.52,994.11c-40.68,10.12-149.81,39-234.17,143.29-78.44,97-88.92,201.65-90.89,239.52,17.9-49.74,64.94-157.05,176.52-231,112.27-74.45,307.66-127,445.44-23,82.44,62.18,109.66,154.27,119.07,196.32l72.66-12c-3.28-30.78-21.43-169.64-140-260.65C2174.23,941.45,2010.42,982.2,1962.52,994.11Z" transform="translate(-148.97 -500.44)"/><path class="cls-5" d="M2026.71,1783.75c8.15-17.79,137.75-289.94,388.15-309,33.82-2.58,175.06-13.34,268.4,86.62,77.53,83,74.73,191.8,73.78,228.83-5.86,227.83-220.36,366.19-247,382.81,224.13-39.37,383.89-238.64,374.26-457.66-9-204.35-163.4-380.4-371.76-417.75-19.37-2.27-234.8-23.76-382.1,144C2005.18,1584.22,2023.36,1756.44,2026.71,1783.75Z" transform="translate(-148.97 -500.44)"/><path class="cls-7" d="M2026.71,1783.75c8.15-17.79,137.75-289.94,388.15-309,33.82-2.58,175.06-13.34,268.4,86.62,77.53,83,74.73,191.8,73.78,228.83-5.86,227.83-220.36,366.19-247,382.81,234.37-77.7,361.71-304.38,314.38-496.16-34.65-140.38-161.94-258.22-310.1-284.43-125.74-22.25-224.63,28.91-254.5,44.91C2068.27,1539.92,2031.27,1754.44,2026.71,1783.75Z" transform="translate(-148.97 -500.44)"/><path class="cls-8" d="M3506.6,2404.52" transform="translate(-148.97 -500.44)"/><circle class="cls-9" cx="943.14" cy="765.63" r="56.32"/><circle class="cls-1" cx="943.14" cy="765.63" r="35.64"/><circle class="cls-9" cx="1006.3" cy="1185.11" r="39.5"/><circle class="cls-1" cx="1006.3" cy="1185.11" r="25"/><circle class="cls-9" cx="562.29" cy="1013.02" r="46.36"/><circle class="cls-1" cx="562.29" cy="1013.02" r="29.34"/><circle class="cls-9" cx="257.29" cy="1163.02" r="72.32"/><circle class="cls-1" cx="257.29" cy="1163.02" r="45.77"/><circle class="cls-9" cx="295.06" cy="1440.77" r="56.36"/><circle class="cls-1" cx="295.06" cy="1440.77" r="35.67"/><circle class="cls-9" cx="692.29" cy="1349.02" r="67.27"/><circle class="cls-1" cx="692.29" cy="1349.02" r="42.57"/><circle class="cls-9" cx="919.03" cy="1580.15" r="51.75"/><circle class="cls-1" cx="919.03" cy="1580.15" r="32.75"/><rect class="cls-9" x="1117.57" y="1313" width="15.68" height="338.07" transform="translate(-345.01 -328.65) rotate(-8.03)"/><rect class="cls-9" x="926.76" y="1397.68" width="18.39" height="400.64" transform="translate(-1045.28 1366.75) rotate(-68)"/><rect class="cls-9" x="560.48" y="1454.21" width="22.32" height="247.99" transform="translate(-712.61 2314.15) rotate(-117.53)"/><rect class="cls-9" x="412.04" y="1719.37" width="22.32" height="182.91" transform="translate(946.31 3044.32) rotate(171.97)"/><rect class="cls-9" x="626.3" y="1746.52" width="23.18" height="306.86" transform="translate(-1237.82 2416.9) rotate(-101.95)"/><rect class="cls-9" x="946.85" y="1854.04" width="16.53" height="236.16" transform="translate(-1263.72 752.55) rotate(-45)"/></svg>